<svg xmlns="http://www.w3.org/2000/svg" xmlns:xlink="http://www.w3.org/1999/xlink" width="500" height="500" preserveAspectRatio="xMidYMid meet" version="1.0" viewBox="0 0 375 375" zoomAndPan="magnify"><defs><clipPath id="c7ac17a33d"><path d="M 169 295 L 198 295 L 198 296.902344 L 169 296.902344 Z M 169 295" clip-rule="nonzero"/></clipPath><clipPath id="4803ee5c29"><path d="M 41 80 L 334.878906 80 L 334.878906 296.902344 L 41 296.902344 Z M 41 80" clip-rule="nonzero"/></clipPath></defs><path fill="#fff" fill-opacity="1" fill-rule="nonzero" d="M 252.304688 253.792969 C 254.308594 253.816406 257.226562 256.5 257.785156 259.671875 C 258.390625 263.007812 256.386719 266.878906 247.988281 268.769531 C 247.988281 268.769531 249.878906 277.328125 235.484375 281.621094 C 238.445312 290.976562 217.289062 294.148438 197.34375 295.082031 C 186.242188 295.59375 175.535156 295.429688 169.539062 295.265625 C 166.484375 295.175781 164.664062 295.082031 164.664062 295.082031 L 164.664062 236.765625 C 164.664062 236.765625 170.683594 233.171875 178.777344 229.324219 C 187.199219 225.289062 197.835938 220.949219 206.210938 219.96875 C 215.027344 218.5 219.085938 226.105469 213.160156 230.863281 L 206.886719 235.738281 L 196.460938 243.832031 L 247.777344 241.917969 C 251.441406 241.753906 254.542969 244.578125 254.730469 248.242188 C 254.730469 248.355469 254.730469 248.496094 254.730469 248.613281 C 254.730469 250.667969 253.796875 252.53125 252.304688 253.792969 Z M 252.304688 253.792969"/><path fill="#fff" fill-opacity="1" fill-rule="nonzero" d="M 141.152344 228.484375 C 141.152344 228.484375 159.300781 229.417969 178.777344 229.324219 C 170.683594 233.171875 164.664062 236.765625 164.664062 236.765625 C 164.664062 236.765625 153.933594 236.8125 140.265625 236.832031 C 134.339844 233.917969 137 227.898438 137 227.898438 C 138.210938 228.15625 139.589844 228.34375 141.152344 228.484375 Z M 141.152344 228.484375"/><path fill="#fff" fill-opacity="1" fill-rule="nonzero" d="M 137 227.898438 C 122.628906 224.914062 129.605469 214.347656 129.605469 214.347656 L 129.605469 214.324219 C 116.285156 210.21875 120.460938 197.433594 129.605469 197.550781 C 120.390625 194.261719 123.238281 183.160156 132.378906 183.160156 C 132.449219 183.160156 132.542969 183.160156 132.613281 183.160156 L 184.796875 183.160156 C 183.09375 176.136719 171.011719 173.59375 164.453125 170.214844 C 154.402344 165.5 158.949219 157.5 165.015625 157.5 C 209.007812 157.40625 222.980469 176.207031 222.980469 176.207031 L 222.980469 232.097656 C 217.011719 235.925781 206.886719 235.738281 206.886719 235.738281 L 213.160156 230.863281 C 219.085938 226.105469 215.027344 218.5 206.210938 219.96875 C 197.835938 220.949219 187.199219 225.289062 178.777344 229.324219 C 159.300781 229.417969 141.152344 228.484375 141.152344 228.484375 C 139.589844 228.34375 138.210938 228.15625 137 227.898438 Z M 137 227.898438"/><path fill="#3b82f6" fill-opacity="1" fill-rule="nonzero" d="M 164.664062 236.765625 L 164.664062 295.082031 L 106.347656 295.082031 C 80.6875 295.082031 69.027344 278.167969 69.027344 257.757812 C 69.027344 246.09375 72.476562 237.371094 74.949219 233.988281 C 78.167969 236.273438 85.027344 236.789062 85.027344 236.789062 C 91.886719 236.925781 119.480469 236.878906 140.265625 236.832031 C 153.933594 236.8125 164.664062 236.765625 164.664062 236.765625 Z M 164.664062 236.765625"/><path fill="#3b82f6" fill-opacity="1" fill-rule="nonzero" d="M 323.285156 157.453125 C 343.113281 183.414062 329.5625 206.4375 303.550781 220.34375 C 281.4375 232.167969 250.273438 237.371094 222.980469 232.097656 L 222.980469 173.78125 C 222.980469 173.78125 278.359375 171.707031 323.285156 157.453125 Z M 323.285156 157.453125"/><g clip-path="url(#c7ac17a33d)"><path fill="#3b82f6" fill-opacity="1" fill-rule="nonzero" d="M 197.34375 295.082031 C 191.5625 299.441406 186.753906 306.347656 183.328125 311.410156 C 179.945312 306.417969 175.230469 299.558594 169.539062 295.265625 C 175.535156 295.429688 186.242188 295.59375 197.34375 295.082031 Z M 197.34375 295.082031"/></g><path fill="#3b82f6" fill-opacity="1" fill-rule="nonzero" d="M 303.550781 220.34375 C 294.6875 232.402344 283.492188 242.246094 271.476562 250.714844 C 267 253.863281 262.425781 256.824219 257.785156 259.671875 C 257.226562 256.5 254.308594 253.816406 252.304688 253.792969 C 252.351562 253.746094 252.417969 253.699219 252.464844 253.652344 C 253.867188 252.394531 254.730469 250.597656 254.730469 248.613281 L 254.730469 248.242188 C 254.542969 244.578125 251.441406 241.757812 247.777344 241.917969 L 196.460938 243.832031 L 206.886719 235.738281 C 206.886719 235.738281 217.011719 235.925781 222.980469 232.097656 C 250.273438 237.371094 281.4375 232.167969 303.550781 220.34375 Z M 303.550781 220.34375"/><path fill="#3b82f6" fill-opacity="1" fill-rule="nonzero" d="M 323.285156 157.3125 L 323.285156 157.453125 C 278.359375 171.707031 222.980469 173.78125 222.980469 173.78125 L 222.980469 176.207031 C 222.980469 176.207031 209.007812 157.40625 165.015625 157.5 C 158.949219 157.5 154.402344 165.5 164.453125 170.214844 C 171.011719 173.59375 183.09375 176.136719 184.796875 183.160156 L 132.378906 183.160156 C 123.238281 183.160156 120.390625 194.261719 129.605469 197.550781 C 120.460938 197.433594 116.285156 210.21875 129.605469 214.324219 L 129.605469 214.347656 C 129.605469 214.347656 126.175781 219.527344 129.070312 223.65625 C 130.28125 225.425781 132.683594 227.011719 137 227.898438 C 137 227.898438 134.339844 233.917969 140.265625 236.832031 C 136.324219 236.832031 132.148438 236.855469 127.925781 236.855469 C 109.777344 236.878906 90.578125 236.902344 85.027344 236.789062 C 85.027344 236.789062 78.167969 236.273438 74.949219 233.988281 C 71.660156 230.746094 68.558594 227.292969 65.644531 223.65625 C 52.253906 206.882812 43.367188 185.632812 43.367188 157.3125 C 45.210938 88.359375 153.515625 42.40625 183.328125 134.125 C 210.570312 50.3125 303.34375 81.453125 320.558594 140.050781 C 322.191406 145.578125 323.121094 151.363281 323.285156 157.3125 Z M 323.285156 157.3125"/><g clip-path="url(#4803ee5c29)"><path fill="#000" fill-opacity="1" fill-rule="nonzero" d="M 325.589844 156.664062 C 324.171875 116.164062 287.917969 85.988281 254.925781 81.207031 C 222.859375 76.554688 196.476562 93.667969 183.328125 127.199219 C 170.175781 93.667969 143.789062 76.578125 111.730469 81.210938 C 78.578125 86.011719 42.121094 116.449219 41.035156 157.304688 C 41.035156 187.890625 51.183594 213.085938 71.996094 234.292969 C 69.664062 238.414062 66.691406 246.578125 66.691406 257.757812 C 66.691406 276.929688 77.109375 297.414062 106.347656 297.414062 L 164.597656 297.414062 C 165.355469 297.449219 166.765625 297.515625 168.695312 297.582031 C 173.945312 301.785156 178.410156 308.328125 181.398438 312.71875 C 181.832031 313.355469 182.554688 313.738281 183.328125 313.738281 C 184.097656 313.738281 184.820312 313.355469 185.253906 312.71875 C 188.886719 307.375 193.164062 301.398438 198.175781 297.414062 C 214.558594 296.574219 231.660156 294.136719 236.515625 287.832031 C 237.597656 286.429688 238.089844 284.847656 238.058594 283.199219 C 242.894531 281.476562 246.398438 279.066406 248.449219 275.964844 C 249.820312 273.894531 250.257812 271.96875 250.367188 270.546875 C 258.679688 268.097656 260.144531 263.570312 260.210938 260.902344 C 280.417969 248.4375 294.707031 236.113281 305.042969 222.238281 C 315.691406 216.453125 324.320312 209.152344 329.554688 200.710938 C 335.554688 191.023438 339.660156 175.558594 325.589844 156.664062 Z M 112.398438 85.828125 C 144.425781 81.183594 169.46875 99.046875 181.109375 134.839844 C 181.421875 135.800781 182.316406 136.453125 183.328125 136.453125 C 184.335938 136.453125 185.230469 135.800781 185.542969 134.839844 C 197.183594 99.050781 222.226562 81.183594 254.253906 85.828125 C 285.101562 90.296875 318.960938 118.222656 320.867188 155.753906 C 277.074219 169.261719 223.4375 171.429688 222.894531 171.449219 C 222.535156 171.464844 222.207031 171.574219 221.910156 171.730469 C 215.777344 166.1875 199.324219 155.164062 165.382812 155.164062 C 165.261719 155.164062 165.132812 155.164062 165.011719 155.164062 C 165.011719 155.164062 165.011719 155.164062 165.007812 155.164062 C 160.851562 155.164062 157.222656 157.910156 156.382812 161.695312 C 156.039062 163.246094 155.53125 168.605469 163.390625 172.28125 C 165.207031 173.222656 167.34375 174.070312 169.609375 174.964844 C 173.730469 176.597656 178.257812 178.390625 180.746094 180.816406 L 132.660156 180.816406 C 126.039062 180.773438 122.121094 185.164062 121.664062 189.65625 C 121.421875 192.015625 122.171875 194.546875 124.058594 196.613281 C 121.140625 198.222656 119.109375 201.09375 118.808594 204.558594 C 118.484375 208.296875 120.441406 212.875 126.429688 215.59375 C 125.636719 217.691406 125.007812 220.796875 126.457031 223.792969 C 127.730469 226.425781 130.316406 228.335938 134.144531 229.53125 C 133.933594 231.0625 134.023438 232.839844 134.765625 234.523438 C 114.941406 234.570312 91.460938 234.59375 85.132812 234.46875 C 83.488281 234.335938 78.652344 233.652344 76.425781 232.167969 C 55.753906 211.636719 45.699219 187.152344 45.699219 157.367188 C 46.71875 119 81.117188 90.359375 112.398438 85.828125 Z M 217.636719 222.683594 C 215.871094 218.738281 211.242188 216.761719 205.933594 217.644531 C 197.367188 218.640625 186.714844 222.941406 178.214844 226.988281 C 159.265625 227.070312 141.441406 226.160156 141.339844 226.15625 C 135.511719 225.652344 131.820312 224.136719 130.667969 221.777344 C 129.882812 220.175781 130.347656 218.320312 130.851562 217.066406 C 131.519531 217.214844 132.214844 217.355469 132.945312 217.46875 C 133.140625 217.488281 148.234375 218.703125 164.175781 218.703125 C 168.988281 218.703125 173.878906 218.59375 178.457031 218.304688 C 179.746094 218.222656 180.722656 217.113281 180.640625 215.828125 C 180.558594 214.539062 179.425781 213.570312 178.167969 213.644531 C 158.746094 214.863281 133.578125 212.835938 133.503906 212.835938 C 125.699219 211.605469 123.195312 207.957031 123.453125 204.957031 C 123.667969 202.496094 125.820312 199.917969 129.398438 199.886719 C 130.09375 200.109375 130.8125 200.320312 131.609375 200.464844 C 140.34375 201.34375 156.480469 202.707031 172.433594 202.707031 C 174.324219 202.707031 176.214844 202.6875 178.085938 202.648438 C 179.375 202.617188 180.394531 201.550781 180.367188 200.265625 C 180.339844 198.996094 179.300781 197.984375 178.035156 197.984375 C 178.019531 197.984375 178 197.984375 177.984375 197.984375 C 160.550781 198.371094 141.738281 196.796875 132.269531 195.851562 C 127.53125 194.976562 126.082031 192.320312 126.300781 190.128906 C 126.539062 187.800781 128.699219 185.480469 132.429688 185.480469 C 132.488281 185.480469 132.550781 185.480469 132.613281 185.480469 L 184.792969 185.480469 C 185.507812 185.480469 186.179688 185.152344 186.621094 184.589844 C 187.066406 184.03125 187.226562 183.296875 187.058594 182.601562 C 185.527344 176.246094 177.980469 173.257812 171.324219 170.625 C 169.175781 169.777344 167.144531 168.972656 165.449219 168.097656 C 162.207031 166.582031 160.523438 164.566406 160.933594 162.707031 C 161.292969 161.097656 163.082031 159.832031 165.011719 159.832031 C 165.132812 159.832031 165.25 159.832031 165.371094 159.832031 C 202.988281 159.832031 217.9375 174.09375 220.644531 177.0625 L 220.644531 230.746094 C 218.816406 231.679688 216.671875 232.28125 214.625 232.675781 C 217.96875 229.988281 219.148438 226.070312 217.636719 222.683594 Z M 164.027344 234.433594 C 161.652344 234.441406 152.390625 234.476562 140.910156 234.507812 C 138.988281 233.382812 138.605469 231.800781 138.710938 230.539062 C 139.457031 230.644531 140.214844 230.742188 141.019531 230.8125 C 141.171875 230.820312 153.769531 231.449219 169.082031 231.617188 C 166.664062 232.917969 164.890625 233.933594 164.027344 234.433594 Z M 162.332031 292.746094 L 106.347656 292.746094 C 84.4375 292.746094 71.359375 279.667969 71.359375 257.757812 C 71.359375 247.90625 73.847656 240.703125 75.773438 237.089844 C 79.464844 238.671875 84.210938 239.078125 84.847656 239.125 C 84.886719 239.128906 84.929688 239.128906 84.972656 239.132812 C 95.0625 239.335938 150.234375 239.148438 162.332031 239.105469 Z M 183.332031 307.289062 C 181.242188 304.292969 178.679688 300.847656 175.742188 297.757812 C 177.652344 297.785156 179.730469 297.804688 181.9375 297.804688 C 184.78125 297.804688 187.847656 297.765625 191.003906 297.683594 C 188.171875 300.65625 185.628906 304.011719 183.332031 307.289062 Z M 246.324219 266.742188 C 246.113281 266.789062 225.011719 271.5 201.929688 271.636719 C 200.640625 271.644531 199.605469 272.695312 199.609375 273.984375 C 199.617188 275.269531 200.660156 276.300781 201.941406 276.300781 C 201.949219 276.300781 201.953125 276.300781 201.957031 276.300781 C 221.554688 276.1875 239.703125 272.851562 245.402344 271.699219 C 244.515625 274.332031 241.347656 278.386719 230.488281 280.414062 L 201.683594 283.636719 C 200.402344 283.78125 199.480469 284.9375 199.621094 286.214844 C 199.757812 287.40625 200.765625 288.289062 201.9375 288.289062 C 202.023438 288.289062 202.109375 288.285156 202.199219 288.273438 L 231.175781 285.027344 C 231.824219 284.90625 232.425781 284.761719 233.042969 284.625 C 232.96875 284.746094 232.910156 284.863281 232.820312 284.984375 C 226.992188 292.550781 190.292969 293.816406 166.996094 292.851562 L 166.996094 238.109375 C 172.039062 235.238281 192.679688 223.882812 206.582031 222.261719 C 210.269531 221.65625 212.65625 222.992188 213.375 224.589844 C 214.015625 226.019531 213.390625 227.683594 211.734375 229.015625 L 195.039062 241.988281 C 194.238281 242.609375 193.929688 243.675781 194.277344 244.628906 C 194.625 245.578125 195.574219 246.261719 196.558594 246.160156 L 247.875 244.242188 C 250.230469 244.175781 252.28125 245.988281 252.414062 248.359375 C 252.535156 250.609375 250.957031 252.5625 248.742188 252.902344 C 239.773438 254.292969 214.507812 257.054688 200.195312 257.15625 C 198.902344 257.164062 197.867188 258.21875 197.878906 259.503906 C 197.886719 260.789062 198.929688 261.820312 200.210938 261.820312 C 200.214844 261.820312 200.222656 261.820312 200.226562 261.820312 C 214.761719 261.714844 240.375 258.921875 249.457031 257.511719 C 250.667969 257.328125 251.777344 256.894531 252.765625 256.292969 C 253.726562 256.789062 255.386719 258.394531 255.546875 260.460938 C 255.761719 263.28125 252.429688 265.5625 246.324219 266.742188 Z M 258.929688 256.210938 C 258.175781 254.878906 257.167969 253.707031 256.015625 252.863281 C 256.769531 251.449219 257.160156 249.816406 257.066406 248.101562 C 256.796875 243.191406 252.554688 239.335938 247.683594 239.582031 L 203.617188 241.230469 L 207.691406 238.066406 C 210.234375 238.023438 217.929688 237.621094 223.425781 234.535156 C 230.671875 235.875 238.113281 236.53125 245.570312 236.53125 C 262.980469 236.53125 280.390625 233.046875 295.183594 226.941406 C 286.078125 237.132812 274.300781 246.621094 258.929688 256.210938 Z M 325.589844 198.253906 C 310.710938 222.265625 264.238281 236.921875 225.3125 230.15625 L 225.3125 176.003906 C 236.042969 175.433594 283.109375 172.324219 322.402344 160.171875 C 331.832031 173.253906 332.941406 186.390625 325.589844 198.253906 Z M 325.589844 198.253906"/></g></svg>